<?xml version="1.0" standalone="no"?>
<!DOCTYPE svg PUBLIC "-//W3C//DTD SVG 20010904//EN"
 "http://www.w3.org/TR/2001/REC-SVG-20010904/DTD/svg10.dtd">
<svg version="1.0" xmlns="http://www.w3.org/2000/svg"
 width="700.000000pt" height="700.000000pt" viewBox="0 0 700.000000 700.000000"
 preserveAspectRatio="xMidYMid meet">
<metadata>
Created by potrace 1.11, written by Peter Selinger 2001-2013
</metadata>
<g transform="translate(0.000000,700.000000) scale(0.100000,-0.100000)"
fill="#000000" stroke="none">
<path d="M3549 6951 c-168 -68 -469 -299 -705 -542 -330 -339 -618 -758 -849
-1234 -114 -234 -185 -384 -185 -389 0 -3 -16 -40 -36 -83 -28 -61 -208 -468
-341 -773 -8 -19 -19 -44 -24 -55 -5 -11 -26 -60 -48 -110 -46 -106 -18 -100
-291 -65 -36 5 -141 7 -235 6 -143 -2 -181 -6 -237 -25 -137 -44 -187 -132
-149 -259 25 -85 124 -195 229 -254 49 -28 52 -32 52 -69 l0 -39 -37 7 c-64
12 -132 7 -153 -12 -32 -29 -50 -80 -56 -161 -3 -43 -10 -89 -15 -102 -5 -14
-8 -26 -6 -29 2 -2 41 -10 86 -18 170 -30 334 -86 347 -119 2 -6 -37 -128 -87
-271 -306 -874 -409 -1200 -488 -1549 -76 -333 -78 -546 -7 -605 59 -49 190
28 312 184 21 28 42 52 45 55 30 26 185 288 256 434 l38 78 49 -6 c27 -3 53
-9 58 -14 4 -4 -10 -51 -33 -103 -97 -223 -144 -422 -117 -499 12 -35 68 -60
136 -60 26 0 60 -7 76 -15 16 -9 30 -14 31 -13 1 2 23 59 50 128 75 197 232
594 285 720 37 90 149 366 210 515 4 11 15 36 23 55 9 19 75 184 147 365 72
182 139 349 148 371 14 36 19 40 37 33 72 -30 831 -204 1105 -253 14 -2 54 -9
89 -16 34 -6 65 -9 68 -6 3 2 -12 8 -33 11 -32 6 -141 27 -204 40 -8 1 -33 8
-55 13 -22 6 -60 14 -84 17 -23 3 -53 10 -65 14 -11 5 -24 9 -29 9 -39 2 -164
40 -307 92 -152 56 -378 118 -403 112 -5 -2 -7 5 -5 15 4 20 22 21 143 9 74
-7 114 -12 155 -22 14 -3 36 -8 50 -11 26 -4 122 -29 345 -89 649 -173 854
-214 1094 -218 68 -1 80 -3 75 -16 -3 -8 -8 -27 -11 -42 -4 -25 -1 -28 24 -29
15 0 35 -2 43 -3 8 -2 38 -6 65 -10 66 -8 143 -21 235 -40 154 -31 284 -49
340 -47 65 2 230 56 230 75 0 11 -289 92 -455 127 -33 7 -62 13 -65 14 -3 1
-30 5 -60 10 -30 5 -57 9 -60 10 -3 1 -30 5 -60 9 -30 4 -66 9 -80 11 -14 2
-63 9 -110 15 -47 6 -123 17 -170 25 l-85 14 70 -6 c39 -3 88 -7 110 -8 51 -4
165 -14 235 -20 30 -3 84 -7 120 -10 36 -3 76 -8 90 -10 14 -2 45 -7 70 -10
41 -5 170 -26 245 -40 73 -14 197 -46 230 -59 l35 -15 61 62 c69 70 97 123
101 191 2 25 6 46 9 46 3 0 65 -181 139 -401 235 -709 400 -1099 575 -1362
126 -190 126 -190 -24 258 -75 226 -185 561 -243 745 -59 184 -136 429 -173
544 -36 114 -65 210 -62 212 2 2 20 -47 41 -109 21 -61 42 -121 46 -132 5 -11
16 -40 24 -65 8 -25 47 -137 86 -250 39 -113 80 -230 90 -260 10 -30 33 -95
50 -145 18 -49 54 -153 80 -230 27 -77 63 -180 80 -230 18 -49 54 -153 80
-230 68 -198 150 -429 153 -430 37 -23 104 -81 192 -165 113 -110 150 -130
217 -122 33 4 75 45 87 86 9 31 7 191 -3 233 -30 133 -107 372 -132 411 -13
20 -13 24 10 47 19 19 36 25 66 25 38 0 41 2 35 23 -8 26 -158 450 -185 522
-10 28 -37 102 -60 165 -22 63 -43 122 -47 130 -7 19 -65 180 -138 385 -84
236 -255 747 -254 759 0 6 14 -27 30 -74 17 -47 69 -191 116 -320 47 -129 102
-282 123 -340 48 -134 228 -612 318 -845 38 -99 89 -231 113 -293 l44 -114 34
6 c19 3 41 11 48 19 15 14 20 84 10 132 -9 41 -36 138 -49 175 -3 8 -18 51
-33 95 -26 75 -131 344 -160 410 -21 49 -139 340 -198 490 -68 172 -156 434
-173 510 -16 76 -239 774 -341 1070 -91 264 -290 811 -313 860 -5 11 -19 45
-30 75 -11 30 -25 64 -30 75 -5 11 -39 92 -75 180 -66 156 -119 277 -193 440
-130 286 -402 799 -631 1194 -56 96 -100 180 -97 187 9 24 -20 43 -104 67 -76
23 -318 82 -379 93 -13 3 -32 9 -43 15 -10 5 -18 8 -18 5 0 -2 -56 10 -123 28
l-124 33 -64 -26z m48 -905 c2 -67 0 -77 -9 -56 -6 14 -17 37 -24 52 -7 15
-15 41 -19 58 -4 16 -11 30 -16 30 -5 0 -9 4 -9 9 0 4 17 4 38 -2 l37 -10 2
-81z m476 15 c22 -8 27 -16 22 -30 -5 -16 1 -20 32 -26 46 -7 67 -19 62 -34
-3 -7 -24 -2 -58 14 -29 14 -77 32 -107 41 -50 14 -53 17 -43 36 11 21 34 21
92 -1z m-193 -146 c14 -19 14 -19 -2 -6 -10 7 -18 18 -18 24 0 6 1 8 3 6 1 -2
9 -13 17 -24z m-92 -78 c16 -26 16 -28 -9 -53 l-26 -25 -26 35 -27 34 28 21
c33 25 39 23 60 -12z m210 -119 c181 -306 436 -799 548 -1061 26 -62 56 -132
67 -157 32 -72 111 -275 160 -410 25 -69 51 -138 57 -155 6 -16 7 -25 2 -20
-5 6 -15 26 -22 45 -104 276 -511 1197 -569 1290 -6 8 -34 62 -64 120 -59 114
-224 411 -252 453 -9 15 -15 27 -12 27 4 0 42 -60 85 -132z m-300 53 c20 -27
20 -29 3 -47 -28 -31 -152 -191 -245 -319 -48 -66 -94 -129 -102 -140 -56 -76
-148 -204 -162 -225 -9 -14 -19 -27 -22 -30 -3 -3 -27 -35 -53 -72 -26 -37
-56 -72 -66 -77 -15 -9 -18 -6 -19 20 -2 69 362 625 522 798 55 58 116 121
120 121 1 0 12 -13 24 -29z m167 -53 c280 -535 488 -986 740 -1610 37 -90 72
-176 80 -193 7 -16 37 -88 65 -160 28 -71 58 -143 65 -160 23 -50 206 -508
215 -537 8 -25 6 -27 -41 -38 -27 -7 -49 -16 -49 -20 0 -8 76 -214 136 -368
13 -34 24 -65 24 -67 0 -3 -13 4 -29 16 -16 12 -53 27 -83 33 l-53 13 0 49 c0
27 -5 52 -10 56 -6 3 -30 9 -55 13 -25 3 -81 12 -125 20 -44 8 -98 17 -120 20
-22 3 -51 8 -65 11 -14 2 -36 6 -50 9 -14 2 -68 12 -120 21 -52 9 -111 18
-130 21 -19 2 -51 8 -70 13 -19 6 -47 10 -62 10 -16 0 -28 4 -28 9 0 4 21 5
48 1 26 -4 79 -11 117 -14 39 -4 80 -8 91 -10 11 -2 51 -7 89 -11 39 -3 84 -8
100 -10 17 -2 71 -9 120 -15 50 -5 108 -12 130 -15 141 -17 165 -17 165 -2 0
26 -50 77 -100 102 -43 22 -230 74 -320 90 -19 3 -80 15 -135 25 -82 16 -248
45 -375 65 -14 2 -81 13 -150 24 -199 33 -253 41 -282 46 -182 27 -351 75
-524 151 -140 61 -419 148 -607 189 -17 3 -27 11 -24 18 3 7 55 133 116 280
123 296 224 496 450 892 13 22 41 72 63 110 22 39 50 86 63 105 12 19 48 78
81 130 54 87 228 338 243 350 3 3 19 23 36 45 80 109 228 265 250 265 35 0
422 -737 585 -1110 18 -41 40 -93 50 -115 64 -145 221 -521 312 -750 57 -143
79 -189 63 -135 -10 35 -63 179 -81 217 -8 17 -14 34 -14 37 0 4 -49 129 -109
279 -235 586 -450 1039 -733 1541 l-39 69 22 23 c13 13 26 24 29 24 4 0 20
-24 35 -52z m1223 -733 c-3 -3 -9 2 -12 12 -6 14 -5 15 5 6 7 -7 10 -15 7 -18z
m60 -150 c-3 -3 -9 2 -12 12 -6 14 -5 15 5 6 7 -7 10 -15 7 -18z m40 -100 c-3
-3 -9 2 -12 12 -6 14 -5 15 5 6 7 -7 10 -15 7 -18z m32 -80 c0 -5 -5 -3 -10 5
-5 8 -10 20 -10 25 0 6 5 3 10 -5 5 -8 10 -19 10 -25z m46 -132 c-4 -4 -36 73
-35 85 0 4 9 -13 20 -37 11 -24 18 -46 15 -48z m58 -143 c5 -17 4 -20 -2 -10
-5 8 -13 26 -16 40 -5 17 -4 20 2 10 5 -8 13 -26 16 -40z m26 -65 c0 -5 -5 -3
-10 5 -5 8 -10 20 -10 25 0 6 5 3 10 -5 5 -8 10 -19 10 -25z m30 -80 c0 -5 -5
-3 -10 5 -5 8 -10 20 -10 25 0 6 5 3 10 -5 5 -8 10 -19 10 -25z m20 -50 c0 -5
-5 -3 -10 5 -5 8 -10 20 -10 25 0 6 5 3 10 -5 5 -8 10 -19 10 -25z m19 -55 c0
-10 -3 -8 -9 5 -12 27 -12 43 0 25 5 -8 9 -22 9 -30z m26 -63 c8 -20 13 -37
10 -37 -5 0 -35 67 -35 78 0 11 10 -5 25 -41z m23 -72 c-3 -3 -9 2 -12 12 -6
14 -5 15 5 6 7 -7 10 -15 7 -18z m33 -71 c5 -15 8 -29 5 -31 -2 -2 -8 10 -14
26 -13 38 -5 41 9 5z m39 -109 c0 -5 -5 -3 -10 5 -5 8 -10 20 -10 25 0 6 5 3
10 -5 5 -8 10 -19 10 -25z m50 -140 c0 -5 -5 -3 -10 5 -5 8 -10 20 -10 25 0 6
5 3 10 -5 5 -8 10 -19 10 -25z m20 -50 c0 -5 -5 -3 -10 5 -5 8 -10 20 -10 25
0 6 5 3 10 -5 5 -8 10 -19 10 -25z m38 -110 c-3 -3 -9 2 -12 12 -6 14 -5 15 5
6 7 -7 10 -15 7 -18z m-1558 -635 c0 -9 -48 -1 -55 9 -2 4 9 5 26 3 16 -2 29
-8 29 -12z m1798 -55 c-3 -3 -9 2 -12 12 -6 14 -5 15 5 6 7 -7 10 -15 7 -18z
m-539 -360 c0 -5 -4 -3 -9 5 -5 8 -9 22 -9 30 0 16 17 -16 18 -35z m20 -60 c0
-5 -4 -3 -9 5 -5 8 -9 22 -9 30 0 16 17 -16 18 -35z m-1634 -133 c-3 -3 -11 0
-18 7 -9 10 -8 11 6 5 10 -3 15 -9 12 -12z m42 2 c-3 -3 -12 -4 -19 -1 -8 3
-5 6 6 6 11 1 17 -2 13 -5z"/>
<path d="M4765 3530 c12 -40 26 -59 19 -25 -4 17 -11 35 -16 40 -7 7 -8 1 -3
-15z"/>
<path d="M4791 3465 c0 -5 9 -28 20 -50 10 -22 16 -29 13 -15 -7 28 -33 80
-33 65z"/>
<path d="M3346 2151 c-3 -5 22 -12 57 -16 34 -4 71 -9 82 -11 36 -7 151 -23
206 -29 30 -4 60 -8 67 -10 6 -3 12 0 12 5 0 6 -6 10 -12 11 -15 0 -56 6 -108
13 -104 15 -181 25 -230 31 -30 4 -58 9 -62 11 -4 2 -9 0 -12 -5z"/>
<path d="M3780 2089 c0 -5 13 -9 29 -9 16 0 38 -3 48 -7 10 -3 15 -3 11 2 -11
11 -88 24 -88 14z"/>
</g>
</svg>
